<?xml version="1.0" encoding="utf-8"?>
<!-- Generator: Adobe Illustrator 28.3.0, SVG Export Plug-In . SVG Version: 6.00 Build 0)  -->
<svg version="1.1" id="Layer_1" xmlns="http://www.w3.org/2000/svg" xmlns:xlink="http://www.w3.org/1999/xlink" x="0px" y="0px"
	 viewBox="0 0 100 100" style="enable-background:new 0 0 100 100;" xml:space="preserve">
<style type="text/css">
	.st0{fill-rule:evenodd;clip-rule:evenodd;}
</style>
<path class="st0" d="M48.5,1.5c0.3-0.6,0.8-0.9,1.4-0.9c-0.2,0-0.4,0.1-0.6,0.1c0.2-0.1,0.4-0.1,0.6-0.1h-0.3
	c-16.2,0-29.4,13.1-29.4,29.4c0,0.1,0,0.1,0,0.2c0,0.3,0,0.5,0.1,0.8l7.8,19.5c0.6-0.2,1.3-0.3,2-0.3h1.4l-7.2-18
	c3.3,0.4,6.4,1.7,9,3.8l0.6,0.5c0.4,0.3,0.7,0.5,1.1,0.7v0.2L39.9,50h3.5l-4.8-13.2c0.4-0.2,0.7-0.4,1-0.6l1.6-1.3
	c2.5-2,5.6-3.1,8.8-3.1c3.2,0,6.3,1.1,8.8,3.1l1.6,1.3c0.3,0.3,0.7,0.5,1,0.6L56.6,50h3.5l4.7-12.9v-0.2c0.4-0.2,0.8-0.4,1.1-0.7
	l0.6-0.5c2.6-2.1,5.7-3.4,9-3.8l-7.2,18h1.4c0.7,0,1.4,0.1,2,0.3l7.8-19.5c0.1-0.3,0.1-0.5,0.1-0.8c0-0.1,0-0.1,0-0.2
	c0-16.2-13.1-29.4-29.4-29.4H50c0.2,0,0.5,0.1,0.7,0.2C59.4,5,64.8,13.9,64.8,23.5v13.4c-1.1,0.4-2.3,0.4-3.4,0l0.1-0.3v-13
	C61.5,15.4,57.1,7.9,50,4c-0.2-0.1-0.5-0.3-0.7-0.4C48.5,3.3,48.1,2.3,48.5,1.5L48.5,1.5z M50,4c-7.1,3.9-11.5,11.3-11.5,19.5v13
	l0.1,0.3c-1.1,0.5-2.3,0.5-3.4,0V23.5c0-9.7,5.5-18.5,14.1-22.8c-0.3,0.2-0.6,0.4-0.7,0.7c-0.4,0.8-0.1,1.8,0.7,2.2
	C49.5,3.8,49.8,3.9,50,4L50,4z M49.2,0.7C49.3,0.7,49.3,0.7,49.2,0.7C49.3,0.7,49.3,0.7,49.2,0.7L49.2,0.7z"/>
<path d="M45.1,53.3h9.9v8.3l-3.1-1.2c-1.2-0.5-2.5-0.5-3.7,0l-3.1,1.2L45.1,53.3z"/>
<path d="M56.6,89.6h9.9v3.3h-9.9V89.6z"/>
<path class="st0" d="M41.8,53.3V64c0,1.2,1.2,2,2.3,1.5l5.4-2.2c0.4-0.2,0.8-0.2,1.2,0l5.4,2.2c1.1,0.4,2.3-0.4,2.3-1.5V53.3h11.5
	c0.3,0,0.5,0,0.8,0.1c1.5,0.3,2.5,1.6,2.5,3.2v39.6c0,1.8-1.5,3.3-3.3,3.3H30.2c-1.8,0-3.3-1.5-3.3-3.3V56.6c0-1.6,1.1-2.9,2.5-3.2
	c0.2-0.1,0.5-0.1,0.7-0.1L41.8,53.3z M53.3,89.6c0-1.8,1.5-3.3,3.3-3.3h9.9c1.8,0,3.3,1.5,3.3,3.3v3.3c0,1.8-1.5,3.3-3.3,3.3h-9.9
	c-1.8,0-3.3-1.5-3.3-3.3V89.6z M33.5,94.5c0,0.9-0.7,1.6-1.6,1.6c-0.9,0-1.6-0.7-1.6-1.6s0.7-1.6,1.6-1.6
	C32.8,92.9,33.5,93.6,33.5,94.5z M36.8,96.1c0.9,0,1.6-0.7,1.6-1.6s-0.7-1.6-1.6-1.6c-0.9,0-1.6,0.7-1.6,1.6S35.9,96.1,36.8,96.1z"
	/>
</svg>
