<?xml version="1.0" encoding="UTF-8"?>
<svg id="Layer_2" data-name="Layer 2" xmlns="http://www.w3.org/2000/svg" viewBox="0 0 1905.41 473.83">
  <defs>
    <style>
      .cls-1 {
        fill: #fff;
      }
    </style>
  </defs>
  <g id="Layer_1-2" data-name="Layer 1">
    <g>
      <path class="cls-1" d="M1905.41.12l-.9,8.76-2.73.66c-.39,5.26-3.48,9.46-5.7,13.78-.35.68.32,2.37-.17,2.92l-2.57.14c.61,5.21-4.58,7.79-3.97,12.99l-2.57.14c.94,2.99-1.82,3.78-1.97,4.34-1.84,6.77-3.39,7.24-6.3,12.7-1.02,1.91-1.43,5.86-2.52,7.82-1.16,2.06-4.86,1.9-3.5,6.83l-2.62.09c1.11,3.59-1.4,4.38-1.65,4.94-3.09,6.89-6.32,13.46-9.07,19.98-.19.46-2.78,1.4-1.67,4.93l-2.57.14c-.5.55.18,2.24-.17,2.92-4.4,8.59-9.13,18.72-13.95,26.75-2.36,3.94-4.69,7.52-6.59,11.23-.35.68.32,2.37-.17,2.92l-2.57.14c1.11,3.53-1.48,4.47-1.67,4.93-1.4,3.32-2.81,9.07-4.55,11.86-.44.7-1.52.87-2.32.95v1.38c1.02.28,4.05,1.68,4.39,2.6.88,2.36,1.41,5.32,2.48,7.87.19.46,2.78,1.4,1.67,4.93l2.57.14c-.94,2.99,1.82,3.78,1.97,4.34,1.88,6.92,3.92,7.69,6.67,13.52,3.36,7.11,8.06,13.52,10.27,21.61.54,2,3.49,3.92,4.4,4.68.77.64,2,5.06,2.45,5.99,2.08,4.26,5.92,9.41,7.8,13.73.78,1.8,2.03,7.69,2.32,8.04.23.28,1.77-.48,3.04,1.18,1.36,1.77,2.76,6.74,3.72,8.88.25.56,2.75,1.34,1.67,4.93l2.57.14c.5.55-.18,2.24.17,2.92.73,1.42,5.41,9.23,5.56,9.83.3,1.2-.39,3.26.17,3.92.16.19,3.65.63,4.25,2.22.67,1.78,1.42,6.31,2.41,7.92,2.93,4.8,5.73,9.36,8.13,14.12,1.13,2.25,1.94,3.13,2.68,4.56,1.25,2.44,1.11,6.9,1.14,9.66H440.72V101.21c0-.12-1.58.36-2.48-.28-5.47-3.91-9.25-5.42-14.34-8.68-4.09-2.62-7.67-5.62-12.04-7.85-.68-.35-2.38.32-2.93-.17l-.14-2.57c-4.41,1.78-5.63-3.18-6.74-3.58-4.94-1.8-7.82-3.51-12.65-5.23-1.07-.38-2.37-5.38-6.74-3.58l-.14-2.57c-.55-.49-2.25.18-2.93-.17-3.09-1.58-7.82-4.07-11-6.1-4.1-2.62-7.67-5.62-12.04-7.85-.68-.35-2.38.32-2.93-.17l-.14-2.57c-4.37,1.8-5.67-3.2-6.74-3.58-4.84-1.72-7.7-3.42-12.65-5.23-1.11-.4-2.33-5.36-6.74-3.58l-.14-2.57c-.55-.49-2.25.18-2.93-.17-3.09-1.58-7.82-4.07-11-6.1-6.73-4.3-11.23-8.03-19.51-10.98-1.07-.38-2.37-5.38-6.74-3.58l-.14-2.57c-.55-.49-2.25.18-2.93-.17-3.23-1.65-5.07-3.57-7.61-5.23-1.67-1.1-7.02-1.63-6.26-5.95h1635.35ZM992.56,138.65h24.38c4.3,0-2.34-16.88-3.44-19.03-15.68-30.47-82.2-25.78-86.97,12.08-3.42,27.17,12.68,37.11,36.26,42.28,11.33,2.49,30.9.54,30.27,16.56-.69,17.52-31.96,18.14-38.35,6.27-2.06-3.83-1.94-10.65-5.69-11.89-2.23-.74-23.39-.78-24.5,0-4.06,15.65,9.49,32.57,23.77,38.17,34.98,13.73,84.15-5.4,71.83-49.24-6.41-22.8-34.63-21.48-52.61-26.11-8.4-2.16-14.72-6.3-12.87-16.08,2.12-11.19,24.58-11.94,31.36-5.19,3.59,3.57,3.19,8.93,6.57,12.17ZM1482.04,138.65h24.38c2.37-1.99,1.49-5.72.98-8.47-8.37-44.93-95.47-39.71-91.35,10.7,1.79,21.88,16.84,28.87,36.21,33.11,10.39,2.27,34.24,1.23,30.96,18.26-3.68,19.08-42.96,16.02-41.96-6.11l-1.15-1c-2.35-1.02-19.56-1.09-22.82-.67-1.59.21-2.84.35-3.71,1.91-1.62,13.15,7.86,27.95,19.33,34.07,31.33,16.71,83.17,3.58,78.67-39.22-1.99-18.93-16.38-26.62-33.36-30.35-9.89-2.17-34.11-1.04-34.27-15.49-.11-10.68,12.98-14.63,21.71-13.16,11.01,1.86,12.21,7.59,16.37,16.42ZM1613.32,138.65h24.38l1.27-1.55c-1.71-53.32-98.32-49.09-91.69,6.63,3.68,30.9,35.33,26.73,56.34,33.62,8.45,2.77,11.65,6.47,9.94,15.85-2.57,14.14-27.84,14.54-36.29,5.77-3.7-3.85-3.57-13.15-7.28-14.26-2.62-.78-24.65-.41-25.47.89-1.32,15.8,9.89,32.12,24.51,37.51,29.22,10.78,73.71,1.22,73.89-36.24.1-21.91-13.66-31.47-33.43-35.97-10.53-2.4-35.75-.89-34.12-17.27,1.33-13.34,24.09-14.81,31.89-6.71,3.29,3.41,3.13,8.31,6.05,11.75ZM707.49,102.15h-62.36v121.22c0,1.67,3.71,2.26,5.1,2.4,15.19,1.52,42.44.69,57.35-1.83,9.72-1.65,19.33-3.38,25.65-12.06,12.62-17.35,8.38-44.96-14.03-51.21,17.23-7.51,19.92-28.15,11.92-43.71-3.62-7.05-16.15-13.77-23.63-14.79ZM809.23,102.15h-29.07c-.14,2.07-.82,3.95-.98,6.05-1.45,19.85-1.98,65.97,2.14,84.06,7.11,31.27,39.43,39.32,67.54,33.23,16.86-3.65,29.21-16.85,33.27-33.25s3.63-66.36,2.16-84.99c-.14-1.8-.55-3.39-.98-5.1h-29.07c-.14,2.07-.82,3.95-.98,6.05-1.76,24.09,3.17,54.46-.18,77.5-1.59,10.94-9.91,17.38-20.86,17.6-3.42.07-12.1-1.72-14.77-3.79-2.95-2.29-6.51-10.17-7.06-13.81-3.52-23.07,1.73-54.24-.17-78.45-.14-1.8-.55-3.39-.98-5.1ZM1093.36,102.15h-29.07v121.22c0,.7,2.28,2.12,3.31,2.32,2.54.48,22.23.31,23.87-.46.44-.21,1.89-1.7,1.89-1.86v-121.22ZM1176.35,102.15h-33.29v122.15l1.41,1.4h21.57c.35,0,3.28-2.13,3.28-2.34v-80.03c5.31,5.53,8.37,13.3,12.23,19.88.3.52,1.27.7,1.74,1.48,11.49,19.43,21.98,39.48,33.81,58.71,2.97,2.91,24.72,3.32,28.15,1.81,1.53-.67,2.96-2.9,2.88-4.61-2.28-36.81,2.87-76.94,0-113.35-.14-1.8-.55-3.39-.98-5.1h-24.85l-1.41,1.4v72.54c-2.25.49-1.52-.38-2.09-1.22-4.48-6.54-8.79-14.26-12.79-21.11-10-17.12-18.76-35.01-29.66-51.62ZM1324.97,125.55h49.23c.17,0,2.34-2.17,2.34-2.34v-19.66l-1.41-1.4h-79.24v121.22c0,1.08,3.69,2.95,5.1,2.4,23.13-2.09,50.63,2.6,73.22-.04,2.11-.25,3.71-.7,5.14-2.36v-21.06c-.92.3-2.03-.94-2.34-.94h-52.04v-28.08h39.85c3.18,0,2.73-15.36,2.29-18.19-.27-1.72-.98-3.11-2.29-4.27h-39.85v-25.27Z"/>
      <path class="cls-1" d="M210.04.12c.24.03,4.14,1.14,4.4,1.26,1.85.9,2.07,4.05,2.26,4.21.66.56,2.72-.13,3.92.17,3.48.87,12.22,8.23,15.99,9.96,6.22,2.85,9.94,6.06,15.01,8.42,1.9.89,3.24.02,4.95,2.59.47.7.23,2.08.46,2.27.66.56,2.72-.13,3.92.17.33.08,4.45,3.37,5.12,3.69,1.62.75,3.35-.96,5.5,2.3.47.71.23,2.08.45,2.27.66.56,2.72-.13,3.92.17,3.12.78,12.19,8.18,15.99,9.95,1.9.89,3.24.02,4.95,2.59.47.7.23,2.08.46,2.27.65.55,2.71-.11,3.92.18.48.11,7.87,3.57,8.78,4.09,2.06,1.18,2.12,4,2.31,4.16.66.56,2.72-.13,3.92.17,3.48.87,12.22,8.23,15.99,9.96,6.22,2.85,9.94,6.06,15.01,8.42,1.9.89,3.24.02,4.95,2.59.47.7.23,2.08.46,2.27.65.55,2.71-.11,3.92.18.48.11,7.87,3.57,8.78,4.09,2.06,1.18,2.12,4,2.31,4.16.66.56,2.72-.13,3.92.17,2.85.72,12.46,8.2,15.99,9.96,5.84,2.9,10.21,6.18,15.01,8.42,2.22,1.04,2.73-.05,4.95,2.59,1.26,1.5-.83,3.37,5.06,2.41l-.05,238.94c-1.13,3.05-5.9,2.27-6.42,2.71-.19.16-.64,3.64-2.22,4.24-2.31.87-5.38,1.37-7.88,2.48-.33.14-.3,1.37-.98,1.54-1.2.3-3.26-.39-3.92.17-.19.16-.63,3.64-2.22,4.24-2.31.87-5.38,1.37-7.88,2.48-.33.14-.3,1.37-.98,1.54-1.2.3-3.26-.39-3.92.17-.19.16-.33,2.95-2.28,4.21-1.67,1.08-6.93,1.88-7.91,2.42-2.3,1.27-8.37,7.48-11.19,8.16-1.76.43-4.04-.18-5.91.03v-235.88c0-.16-2.45-1.77-2.59-1.83-3.28-1.4-6.24-2.37-9.55-4.32-10.89-6.4-22.48-15.12-34.51-19.4-1.07-.38-2.36-5.38-6.74-3.58l-.14-2.57c-.55-.49-2.25.18-2.93-.17-4.8-2.45-10.1-5.72-14.96-8.47-10.52-5.94-19.25-12.91-30.55-17.04-1.11-.4-2.33-5.36-6.74-3.58l-.14-2.57c-.55-.49-2.25.18-2.93-.17-5.54-2.82-10.97-6.89-16.51-10.14-4.12-2.41-9.47-5.69-13.59-6.67-.83-.2-.57-1.93-1.13-1.91-4.14.17-9.51,6.32-12.99,8.12-.96.5-2.06.2-3.1.66-.55.24-1.36,2.74-4.94,1.67l-.15,2.57c-5.57.48-9.09,6.46-14.86,5.86l-.15,2.57c-3.29-.69-4.62,2.29-6.82,3.53-3.22,1.82-8.52,3.57-11.56,5.3-1.39.79-2.91,4.35-6.71,3.67l-.25,2.46c-5.56.55-9.08,6.47-14.84,5.88l-.15,2.57c-5.57.48-9.09,6.46-14.86,5.86l-.15,2.57c-3.3-.67-4.62,2.27-6.81,3.54-2.81,1.63-8.72,3.56-11.55,5.32-2.11,1.31-1.78,4.82-6.8,3.55l-.15,2.56c-5.57.48-9.09,6.46-14.86,5.86l-.15,2.57c-4.46.34-7.68,4.36-12.1,5.75v235.88c-4.27.67-8.24-1.35-11.99-3.43-1.36-.75-1.18-3.07-4.8-2.31l-.14-2.57c-6.11,1.29-5.03-5.26-11.14-3.97l-.14-2.57c-3.22.84-3.52-1.63-4.36-1.96s-2.37.19-3.76-.31c-1.08-.39-2.35-5.37-6.74-3.58l-.14-2.57c-.55-.49-2.25.18-2.93-.17-3.65-1.86-7.09-3.99-11-6.1-1.03-.55-.93-3.51-4.73-2.28L.03,116.86c1.91-.5,1.75-3.16,1.94-3.33.64-.56,2.71.11,3.89-.19.84-.21,2.01-2.86,2.9-3.36,1.91-1.07,5.74-1.79,7.98-2.42l.2-2.5c5.06,1.18,4.61-2.13,6.8-3.56.69-.45,2.05-.17,3.14-.62.45-.19,1.42-2.77,4.94-1.67l.15-2.57c3.3.68,4.62-2.28,6.81-3.54,4.99-2.87,10.48-6.2,15.4-8.71.68-.35,2.38.32,2.93-.17l.14-2.57c4.94,1.32,4.76-2.34,6.83-3.5,1.91-1.07,5.74-1.79,7.98-2.42l.2-2.5c5.01,1.27,4.73-2.31,6.8-3.56,4.56-2.76,11.03-6.4,15.47-8.66,5.15-2.62,9.99-5.91,14.98-8.45.68-.35,2.38.32,2.93-.17l.14-2.57c4.94,1.32,4.76-2.34,6.83-3.5,1.91-1.07,5.74-1.79,7.98-2.42l.2-2.5c5.07,1.17,4.6-2.11,6.79-3.57,3.63-2.42,11.49-6.62,15.48-8.65,5.15-2.62,9.99-5.91,14.98-8.45.68-.35,2.38.32,2.93-.17l.14-2.57c4.96,1.31,4.74-2.32,6.82-3.51,1.6-.92,4.67-1.67,6.93-2.91,4.45-2.44,8.27-5.64,12.5-8.14,1.78-1.06,3.97-.45,5.58-3.33,3.32.27,7.08-.38,10.31,0Z"/>
      <path class="cls-1" d="M178.16,149.89v235.88c0,.19,2.42.76,3.53,1.56,1.66,1.21,1.18,2.85,4.83,2.31l.14,2.57c5.76-.61,9.29,5.38,14.86,5.86l.16,2.55c.33.35,5.52.38,6.29-.1,1.07-.66,6.54-5.88,7-6.05,1.39-.5,2.91.03,3.76-.31s1.13-2.8,4.36-1.96l.14-2.57c4.12.46,4.66-.73,6.91-3.46.4-.48,1.47-.32,1.47-.39v-235.88c1.87.21,4.16-.4,5.91.02.61.15.45,1.31,1.39,1.8.64.34,2.29-.32,2.88.22.35.32-.13,1.77.37,2.39,1.26,1.55,8.47,3.53,10.32,4.03,1.5.41,8.31,6.58,11.7,8.35,5.4,2.83,13.11,5.74,18.59,9.32,1.66,1.09,3.75,4.31,6.73,5.65,1.4.63,4.3-.47,5.82,2.6l.11,238.51c-.86,3.72-4.5,2.63-5.93,3.28-.66.3-4.79,3.6-5.12,3.69-1.2.3-3.26-.39-3.92.17-.23.19.01,1.58-.45,2.27-2.11,3.13-6.76,2.9-9.67,4.43-2.34,1.23-9.31,7.63-11.26,8.11-1.2.3-3.44-.37-3.97.13l-.15,2.57c-3.27-.77-4.71,2.44-6.82,3.53-1.86.97-7.66,2.07-8,2.36-.22.19.01,1.56-.45,2.27-2.15,3.26-3.87,1.55-5.5,2.3-3.71,1.7-8.33,6.36-11.34,8.03s-9.06,1.11-8.18,4.91c-5.12-.78-4.52,3-9.78,3s-4.38-3.24-8.82-3.01l-.14-2.57c-4.39,1.79-5.66-3.19-6.74-3.58-7.69-2.77-15.56-7.64-22.42-11.6-8.05-4.64-15.38-9.98-23.09-13.91-.68-.35-2.38.32-2.93-.17l-.14-2.57c-6.1,1.29-5.03-5.26-11.14-3.97l-.14-2.57c-.55-.49-2.25.18-2.93-.17-3.09-1.57-5.29-3.79-7.6-5.24-1.06-.67-3.18-.12-3.99-1.2l-.42-237.38c.98-3.39,3.91-3.39,5.81-4.26.94-.43.77-1.58,1.46-1.76,6.81-1.79,2.67-1.5,6.28-3.85.79-.52,8.21-4.46,8.7-4.58,1.2-.3,3.26.39,3.92-.17.23-.19-.01-1.57.46-2.27,1.72-2.57,3.07-1.69,4.95-2.59,7.31-3.48,11.58-7.34,19.78-10.25.48-.17,5.29-5.73,7.46-6.24,1.52-.36,3.37.11,4.96-.03Z"/>
      <path class="cls-1" d="M1076.48,375.47c1.03-1.03,19.17-1.19,22.02-.92,1.39.13,7.31,2.35,7.8,2.94.54.65-.09,2.23.24,2.85.89,1.67,2.8,4.5,3.62,6.19,2.83,5.87,4.78,6.57,6.67,13.52.27.98,5.02,6.86,6.85,10.67,2.19,4.56,2.76,4.28,5.63,7.9.91,1.15.67,3.31,2.49,3.65v-46.8c7.14-1.15,14.47-1.57,21.57,0v88.92h-23.44c-.08,0,.16-1.03-.37-1.49-3.72-3.19-2.73-2.64-4.4-6.16-2.91-6.14-8.94-12.83-12.04-19.34-.35-.73.27-2.36-.2-2.87l-2.57-.15c1.11-3.51-1.48-4.48-1.67-4.93-2.13-5.1-5.83-8.14-7.21-13.4l-3.42-3.14v51.48h-21.57v-88.92Z"/>
      <path class="cls-1" d="M1542.52,375.47c1.22-1.23,23.41-1.37,26.05-.3.84.34.92,1.38,1.51,1.85s1.99.12,2.27.46c.53.63-.11,2.24.22,2.86,1.44,2.68,1.05,2.28,2.1,5.19.39,1.08,5.39,2.35,3.59,6.73l2.57.15c.47.52-.14,2.15.2,2.87,2.72,5.71,8.56,12.56,11.57,18.64,2.7,5.46,1,1.82,3.16,3.81.72.66-.34,4.19,2.07,4.54v-46.8c6.99-1.25,14.62-1.65,21.57,0v88.92h-23.44c-.09,0,0-1.23-.62-1.77s-1.69-.91-1.94-1.3c-3.34-5.36-3.6-10.1-8.44-14.02-.56-.46-5.13-10.31-6.2-12.07s-6.07-9.3-6.22-9.88c-.3-1.2.39-3.26-.17-3.92-.19-.23-1.57.01-2.27-.46-2.56-1.7-1.71-3.01-2.59-4.95-.15-.33-1.34-.32-1.53-.96-.57-1.89,1.32-4.7-1.9-4.03v53.35h-21.57v-88.92Z"/>
      <path class="cls-1" d="M618.63,372.96c4.28,1.93,4.06,1.12,9.03,1.69,7.85.91,22.56,8.78,27.52,16.07.51.75.05,2.12.36,2.68,5.61,10.08,9.7,28.52,5.46,40.32-1.18,3.3-2.44,7.25-3.99,10.71-1.63,3.63-1.29,3.41-4,5.32-4.92,3.47-5.93,8.06-13.22,11.83-5.91,3.06-6.48,1.58-11.82,2.83-.7.16-.58,1.66-1.29,1.83-1.83.44-22.2.44-24.03,0-.72-.17-.59-1.69-1.28-1.84-1.66-.36-3.61.31-5.29-.02-.34-.07-4.61-4.5-5.08-4.65-5.82-1.82-6.02-2.74-10.16-6.95-1.37-1.4-8.65-11.68-8.81-12.46-.35-1.71.3-3.6-.05-5.26-.16-.74-1.71-.23-1.94-1.97-.47-3.57-.59-25.13.09-27.97.17-.7,1.68-.57,1.84-1.28.35-1.55-.39-3.17.26-4.76.57-1.4,5.87-6.54,6.04-7,.54-1.51-.08-3.27.46-4.26.97-1.77,7.76-3.78,8.13-4.09,1.94-1.62-1.11-1.74,5.93-4.63.84-.35.81-1.61,1.41-1.74,4.17-.88,22.15-5.42,24.42-4.41ZM623.3,394.5c-1.7-.63-11.24-.67-13.39-.39-1.72.23-1.15,1.68-2.03,1.92-1.11.3-2.36-.2-3.76.32-.62.23-2.92,4.44-4.04,5.59-.75.77-2.24.51-2.53.86-1.31,1.6-4.55,18.31-3.97,20.7.17.71,1.67.58,1.83,1.28,1.01,4.31-.72,3.62,1.85,8.52.34.64-.32,2.29.22,2.88.32.35,1.81-.13,2.4.36.42.35.18,1.74.91,2.54,3.1,3.4,6.38,6.49,11.48,5.75l.56,2.77c6.74,1.31,5.99-2.23,7.57-2.74,1.49-.48,3.17.18,4.81-.41.56-.2,7.78-7.47,8.33-8.49.43-.8,2.13-3.82,2.19-4.06.37-1.55-.43-5.29.13-5.84l2.77-.57c-.55-2.68.57-6.77-.04-9.13-.26-.99-2.25-.91-2.69-2.17-1.03-2.96.17-7.5-2.32-11.3-.25-.39-6.18-6.3-6.56-6.56-.73-.49-2.02-.06-2.68-.36-.91-.41-.87-1.42-1.05-1.48Z"/>
      <path class="cls-1" d="M1016.22,372.97c4.3,1.98,13.8,3.16,19.3,4.4.4.09,6.7,3.66,6.96,3.98.51.61.03,2.06.38,2.39.54.51,2.32-.12,3.35.45,2.63,1.45,7.78,10.73,9.24,13.66.67,1.34,4.03,6.87,4.13,7.3.48,2,.48,26.67,0,28.66-.17.7-1.67.56-1.83,1.29-1.19,5.19-3.09,9.07-5,14.08-.67,1.77-17.61,14.33-20.07,15.03s-4.99-.27-7.13.21c-.7.16-.57,1.66-1.28,1.83-5.9,1.41-23.61-.23-29.62-1.9-.51-.14-5.67-4.51-6.06-4.61-5.57-1.41-7.95-4.82-12.38-9.14-3.62-3.53-6.21-9.3-5.79-14.23l-2.77-.57v-30.8s2.78-.56,2.78-.56c.47-.5-.18-2.88.15-4.09,1.08-3.89,7.5-13.74,10.56-16.16.69-.55,2.35,0,3.18-.56.91-.62,2.45-3.45,3.4-4.13,3.08-2.21,14.22-4.11,18.87-5.02,2.88-.57,5.54-3.4,9.65-1.51ZM1020.9,394.49c-1.16-.54-12.57-.65-14.09-.27-.63.15-.64,1.39-.97,1.53-1.28.53-4.86,1.41-5.96,2.48-.47.46-.29,1.67-.96,2.48-4.03,4.85-4.46,5.17-5.92,11.56-.17.72-1.66.59-1.83,1.29-.38,1.57-.34,9.27-.09,11.12.23,1.74,1.76,1.23,1.93,1.98.35,1.54-.44,5.29.14,5.85l2.56.16c-.17,2.09,1.09,4.36,2.4,6.04.58.74,5.99,5.63,6.39,5.79,1.57.62,3.28-.11,4.82.39,1.28.41,1.17,2.43,2.17,2.69,5.54,1.45,5.06-2.24,6.49-2.69,3.39-1.07,3.95.07,7.81-2.69,2.33-1.67,6.03-6.65,5.81-9.53,4.84.72,1.88-4.41,2.71-7.87.28-1.19,2.73-1.8,1.93-7.73-.24-1.73-1.75-1.23-1.93-1.98-.5-2.17.51-5.09-.02-7.1-.21-.78-3.75-2.85-4.4-3.79-.51-.74-.03-2.24-.63-3.1-.46-.66-3.38-4.62-3.66-4.73-1.39-.53-2.65-.02-3.76-.32-.79-.21-.7-1.43-.94-1.54Z"/>
      <path class="cls-1" d="M1718.81,375.47c1.31-1.32,32.62-1.23,37.08-.98,2.24.13,7.23.5,9.13,1.02.79.22.63,1.67,1.31,1.81,3.5.75,3.07.31,6.23,1.57,4.25,1.69,10.59,3.06,10.13,8.66l2.58.14c-1.24,3.63,1.88,4.62,2.06,5.96.47,3.54.41,17.1-.33,20.4-.23,1.03-7.75,11.41-8.43,11.67-.81.31-6.45.95-6.37,2.68.12,2.46,3.08,3.62,3.55,4.42.58,1-.11,2.79.43,3.36.32.34,1.77-.13,2.39.37,2.09,1.7,3.75,10.42,4.15,10.89.16.19,3,.25,4.17,2.3,1.33,2.33,3.17,7.8,4.34,9.74.37.62,2.2.68,2.54,1.68.56.98-.63,3.23-1.35,3.23h-25.32c-1.6-1.67-4.1-9.91-5.41-10.99-.62-.51-2.07-.03-2.39-.37-.52-.54.13-2.3-.42-3.36-.7-1.35-5.15-9.58-5.64-10.27-1.56-2.21-5.7-2.74-4.43-6.83h-6.56s0,31.82,0,31.82h-23.44v-88.92ZM1757.25,394.19c-1.02-.69-12.53.51-15,0v21.53l10.74.06.56-2.77c9.5.53,11.88-5.95,10.22-14.39-.53-2.69-5.86-2.41-6.34-2.79-.44-.34-.09-1.59-.18-1.64Z"/>
      <path class="cls-1" d="M1378.42,375.47c1.17-1.38,31.71-1.22,36.15-.98,2.43.13,8.05.51,10.09,1.01.74.18.6,1.69,1.28,1.83,1.67.36,3.61-.34,5.28.03.61.14.62,1.4.96,1.53,13.77,5.5,16.07,18.92,14.66,33.35-2.84,1.55-3.67,6.77-4.94,8.79-1.63,2.58-7.75,4.09-10.04,7.37v1.75c.14.47,1.4.43,1.58.81.81,1.77,2.05,7.71,2.34,8.05.19.23,1.57-.01,2.27.46,1.05.7,5.67,8.92,6.97,11.1,1.71,2.87,1,2,2.14,5.15.44,1.21,5.95,2.85,3.47,8.66h-25.32l-2.19-6.24c-2.83-.48-.87-3.91-1.71-4.89-.19-.23-1.57.01-2.27-.46-2.65-1.76-1.7-3.43-2.61-4.91-1.4-2.25-4.18-3.63-3.54-6.81l-2.57-.15c.69-4.56-3.9-9.35-8.55-8.37v31.83h-23.44v-88.92ZM1416.87,394.19c-2.4-1-11.66.74-15,0v21.53l10.74.06.56-2.78c3.96.54,3.92-.3,5.98-1.6.71-.45,1.98-.22,2.23-.52.55-.64-.09-2.24.24-2.85.51-.94,1.64-.79,1.79-1.39,1.48-5.9-2.43-7.87-6.13-10.99-.49-.41-.33-1.43-.4-1.46Z"/>
      <path class="cls-1" d="M508.23,434.44c-1.2,3.99,1.05,4.01,1.82,5.43.33.61-.3,2.2.23,2.85.32.39,5.3,1.3,5.06,4.89l14.35-.22c-.88-2.55,3.61-4.18,3.81-5.2.99-4.86.26-10.14-5.5-9.74l-.6-2.75c-3.5-.41-8.79.81-11.97.05-.86-.21-8.98-3.55-9.72-3.71-1.82-.39-8.22-.83-9.56-2.05-.35-.32.13-1.78-.37-2.39-.17-.21-3.1-.84-4.13-2.43-1.96-3.04-1.46-6.36-2.17-9.34-.23-.95-2.25-.88-2.7-2.16-.58-1.66-.32-8.91.07-10.95.5-2.57,2.45-2.45,2.59-3.15.38-1.86-.42-3.75.29-5.68.42-1.13,5.65-3.91,6-4.26s3.14-5.58,4.26-5.99c1.93-.7,3.8.07,5.68-.3.57-.11.57-1.65,2.62-2.19,2.96-.79,7.73-1.8,10.73-2.41.99-.2,16.01,2.16,17.83,2.68,1.05.3,5.44,3.7,5.8,3.79,1.17.31,2.78-.34,3.81.21.48.26,6.29,7.96,6.5,8.46.55,1.31-.03,2.63.28,3.78.21.8,1.66.63,1.83,1.32.75,3.08-.49,8.14.02,11.52h-21.57c-.16,0-1.82-2.38-1.85-2.53-.4-2.05.74-6.3-2.15-7.47-1.37-.56-2.64-.03-3.75-.32-.88-.23-.3-1.68-2.02-1.91-1.36-.19-5.21-.2-6.45.1-.66.16-.48,1.47-1.37,1.82-2.35.92-3.45-1.91-3.12,3.73l-2.79.55v3.63c3.3-.43,4.91,5.19,5.29,5.29,1.41.36,3.65-.43,5.39-.04.74.17.24,1.7,1.98,1.93,5.9.77,12.93.47,18.64,1.82.3.07,1.77,3.25,5.27,1.96l.15,2.57c1.37-.88,7.85,3.45,8.05,4.12.64,2.09-.08,3.85.31,5.67.16.74,1.71.23,1.94,1.97.77,5.85-.68,13.45-.1,19.53-3.09,3.27-4.48,9.68-8.7,12.53-.95.64-6.25,2.72-7.84,3.45-3.44,1.58-2.69.79-6.24,1.54-.74.15-.23,1.7-1.98,1.93-4.21.55-18.43.55-22.63,0-1.73-.23-1.18-1.71-2-1.91-1.27-.31-3,.27-4.26-.25-3.38-1.4-11.68-8.24-13.5-11.34-.83-1.41-4.85-9.98-5-10.61-.53-2.21.3-5.39-.02-7.78h23.44Z"/>
      <path class="cls-1" d="M774.54,375.47v60.37c0,.27,1.91,4.28,2.22,4.84,1.08,1.95,5.6,5.18,8.05,4.15l.56,2.78h5.54s.56-2.78.56-2.78c1.83,1.54,7.76-3.05,8.12-4.07.52-1.48-.11-3.49.5-4.27.34-.44,1.65-.09,1.65-.18v-60.84c7.69-1.06,15.86-1.8,23.44,0v69.27c0,.27-.64-.78-1.9,4-.13.5-4.51,6.32-5.32,7.2-1.21,1.33-9.65,8.3-10.31,8.44-2.21.46-4.99-.46-7.15.04-.75.17-.25,1.7-1.99,1.93-4.22.55-18.41.55-22.63,0-1.75-.23-1.24-1.77-1.98-1.93-1.67-.36-3.6.31-5.29-.03-.68-.14-9.2-7.28-10.59-8.81-3.39-3.73-3.77-4.95-5.04-10.2-.26-1.09-1.89-.54-1.89-.64v-69.27c7.59-1.8,15.75-1.06,23.44,0Z"/>
      <path class="cls-1" d="M1279.02,464.39c.32-2.4-.51-5.57.02-7.78.79-3.3,4.83-11.11,5.58-14.39,2.91-12.69,8.41-26.57,13.12-38.39l2.01-11.46,2.78-.55c-1.9-3.99,1.72-6.31,1.8-6.68.89-4.13-.34-2.68,1.84-6.66.34-.62-.27-2.26.17-2.86,1.19-1.61,28.58-1.6,29.76,0,.44.6-.17,2.24.17,2.86,2.18,3.98.95,2.53,1.84,6.66.08.37,3.69,2.69,1.8,6.68l2.78.56c.56.56-.24,4.32.12,5.86.16.7,1.69.57,1.85,1.27,1.55,7.07,2.45,13.07,6.09,18.99,2.36,3.85,3.16,15.29,4.26,19.98.08.33,3.54,2.07,1.79,5.75l2.94,1.01c.11,1.73-.43,3.76-.05,5.41.11.48,3.6,7.35,3.71,7.83.41,1.76-.19,4.04.02,5.91h-25.32c-.21-1.87.4-4.15-.02-5.91-.11-.47-3.6-7.36-3.71-7.83-.42-1.77.2-4.04-.02-5.92h-27.61c-1.12.17-.22,2.79-.54,4.04-.19.73-1.69.6-1.85,1.28-.43,1.91.49,4.39-.15,6.28-.43,1.26-2.45,1.19-2.7,2.16-.42,1.64.28,4.09.02,5.9h-22.5ZM1312.78,427.89h15c1.22-3.68-1.59-3.52-2.17-4.87-1.29-3.02-3.78-12.06-4.37-14.49-.44-1.8,1.3-6.11-1.42-5.92-1.09,1.16-.06,3.45-.62,5.04-.44,1.28-2.47,1.21-2.7,2.16-1.15,4.82-2.96,9.01-3.7,12.16-.42,1.75.19,4.04-.02,5.91Z"/>
      <polygon class="cls-1" points="1701.93 375.47 1701.93 394.19 1663.48 394.19 1663.48 411.04 1693.49 411.04 1693.49 427.89 1663.48 427.89 1663.48 444.74 1702.4 444.74 1703.8 446.14 1703.8 464.39 1640.04 464.39 1640.04 375.47 1701.93 375.47"/>
      <path class="cls-1" d="M1208.7,375.47c1.14-1.35,30.9-1.24,35.21-.98,4.64.28,10.33,1.89,14.79,2.87.68.15.49,1.61,1.32,1.83,2.56.69,7.9,1.97,9.37,4.98.55,1.12-.05,2.91.39,3.39l2.58.14c-1.24,3.63,1.88,4.62,2.06,5.96.54,4.12.55,18.49,0,22.59-.19,1.44-2.97,1.89-2.08,5l-2.57.15-.13,4.61c-5.28-1.06-4.4,5.35-10.26,3.84l-.11,2.6c-.67.69-6.05-.36-7.76.1-1,.27-.52,1.89-.61,1.89h-18.75v29.95h-23.44v-88.92ZM1232.14,394.19v21.53h15c.12,0-.3-1.55.32-2.46,1.96-2.87,1.8-.89,3.75-5.66.13-.32,1.35-.33,1.52-.97,1.17-4.13-1.6-3.93-1.81-4.71-.48-1.78.19-4.76-2.63-5.81-.87-.33-2.28.19-3.28-.08-.82-.22-.63-1.65-1.33-1.82-3.08-.75-8.15.49-11.54-.02Z"/>
      <polygon class="cls-1" points="1527.52 375.47 1527.52 394.19 1504.07 394.19 1504.07 464.39 1480.63 464.39 1480.63 394.19 1457.19 394.19 1457.19 375.47 1527.52 375.47"/>
      <polygon class="cls-1" points="910.51 375.47 910.51 394.19 887.06 394.19 887.06 464.39 863.62 464.39 863.62 394.19 840.18 394.19 840.18 375.47 910.51 375.47"/>
      <path class="cls-1" d="M702.34,375.47v69.27h35.63v19.66h-59.08v-88.92c2.47-1.32,23.44-1.31,23.44,0Z"/>
      <path class="cls-1" d="M948.95,375.47v88.92h-23.44v-88.92c7.69-1.06,15.86-1.8,23.44,0Z"/>
      <path class="cls-1" d="M696.24,171.42c13.57,1.54,17.62,14.35,12.32,25.91-.6,1.31-7.38,5.92-8.57,5.92h-25.79v-31.83c7.03.57,15.16-.78,22.04,0Z"/>
      <path class="cls-1" d="M674.21,151.76v-29.95c7.73.14,18.22-.41,25.56,2.09,9.93,3.38,10.1,23.52-1.15,26.49-1.07.28-7.29,1.37-8.01,1.37h-16.41Z"/>
    </g>
  </g>
</svg>