<?xml version="1.0" encoding="UTF-8"?>
<svg id="Layer_2" data-name="Layer 2" xmlns="http://www.w3.org/2000/svg" viewBox="0 0 506.66 122.01">
  <defs>
    <style>
      .cls-1 {
        fill: #fff;
        fill-rule: evenodd;
      }
    </style>
  </defs>
  <g id="Layer_1-2" data-name="Layer 1">
    <g id="Symbols">
      <path id="Fill-4" class="cls-1" d="M104.28,24.76c7.5,6.2,12.33,14.18,15.44,23.27.61,1.78,1.45,3.12,2.97,4.33,12.48,9.91,17.55,26.16,13.03,41.36-4.54,15.27-17.4,26.07-33.49,27.5-11.21.99-22.48.56-33.73.17,0-7.95-.02-15.9-.03-23.86,9.44-.04,18.88-.08,28.33-.12,1.94,0,3.87-.01,5.75-.58,6.55-1.96,10.86-7.96,10.59-14.77-.27-6.87-5.11-12.5-12.13-13.92-1.48-.3-2.79-.19-2.72-2.38.29-9.85-3.83-17.76-11.05-24.23,5.68-5.59,11.36-11.18,17.04-16.78"/>
      <path id="Fill-6" class="cls-1" d="M15.37,113.51c-19.58-14.33-20.64-44.35-2.12-60.05,1.2-1.02,2.44-1.99,3.65-2.98.2-.23.39-.46.59-.7l-.06.03c9.34-5.06,19.18-7.24,29.75-5.15,8.09,2.01,15,5.97,20.68,12.12,1.71,1.85,1.64,3-.17,4.71-4.4,4.16-8.7,8.45-12.85,12.85-1.77,1.87-2.54,1.9-4.18-.3-6.36-8.55-18.59-8.09-24.28.72-4.84,7.48-2.34,15.96,6.34,21.55-5.78,5.73-11.57,11.46-17.35,17.2"/>
      <path id="Fill-8" class="cls-1" d="M47.18,44.66c-10.58-2.09-20.41.09-29.75,5.15,1.25-7.26,5.04-13.27,9.51-18.88,18.93-23.74,55.98-26.67,77.34-6.17-5.68,5.59-11.36,11.18-17.04,16.78-1.43-.9-2.84-1.86-4.31-2.69-11.75-6.64-27.36-4.09-35.76,5.82"/>
      <path id="Fill-10" class="cls-1" d="M15.37,113.51c5.78-5.73,11.57-11.46,17.35-17.2,2.9.96,5.88,1.19,8.92,1.18,8.94-.04,17.88.02,26.83.04,0,7.95.02,15.9.03,23.86-12.87-.19-25.81,1.2-38.61-.97-5.4-.92-10.27-3.37-14.53-6.9"/>
      <path id="Combined-Shape" class="cls-1" d="M224.88,21.86c0,5.42-1.61,9.74-4.83,12.96-3.62,3.83-8.37,5.75-14.26,5.75s-10.41-1.95-14.32-5.86c-3.9-3.9-5.86-8.71-5.86-14.43s1.95-10.52,5.86-14.42c3.91-3.91,8.68-5.86,14.32-5.86,2.86,0,5.55.51,8.08,1.52,2.53,1.01,4.61,2.44,6.24,4.28l-3.58,3.58c-1.19-1.45-2.74-2.58-4.64-3.39-1.9-.81-3.93-1.22-6.1-1.22-4.23,0-7.81,1.47-10.74,4.39-2.89,2.96-4.34,6.67-4.34,11.12s1.45,8.15,4.34,11.12c2.93,2.93,6.51,4.39,10.74,4.39,3.87,0,7.09-1.08,9.65-3.25,2.57-2.17,4.05-5.15,4.45-8.95h-14.1v-4.66h18.82c.18,1.01.27,1.99.27,2.93M233.28,26.42c0,2.86.83,5.17,2.49,6.94s3.72,2.66,6.18,2.66,4.52-.89,6.18-2.66,2.49-4.09,2.49-6.94-.83-5.12-2.49-6.89c-1.7-1.81-3.76-2.71-6.18-2.71s-4.48.9-6.18,2.71c-1.66,1.77-2.49,4.07-2.49,6.89M228.29,26.42c0-4.09,1.28-7.47,3.85-10.14,2.6-2.67,5.88-4.01,9.82-4.01s7.19,1.34,9.76,4.01c2.6,2.68,3.9,6.06,3.9,10.14s-1.3,7.5-3.9,10.14c-2.57,2.68-5.82,4.01-9.76,4.01s-7.21-1.34-9.82-4.01c-2.57-2.68-3.85-6.06-3.85-10.14M263.65,26.42c0,2.86.83,5.17,2.49,6.94s3.72,2.66,6.18,2.66,4.52-.89,6.18-2.66,2.49-4.09,2.49-6.94-.83-5.12-2.49-6.89c-1.7-1.81-3.76-2.71-6.18-2.71s-4.48.9-6.18,2.71c-1.66,1.77-2.49,4.07-2.49,6.89M258.66,26.42c0-4.09,1.28-7.47,3.85-10.14,2.6-2.67,5.88-4.01,9.82-4.01s7.19,1.34,9.76,4.01c2.6,2.68,3.9,6.06,3.9,10.14s-1.3,7.5-3.9,10.14c-2.57,2.68-5.82,4.01-9.76,4.01s-7.21-1.34-9.82-4.01c-2.57-2.68-3.85-6.06-3.85-10.14M302.48,36.02c2.46,0,4.46-.88,6.02-2.66,1.63-1.77,2.44-4.09,2.44-6.94s-.81-5.08-2.44-6.89c-1.59-1.81-3.6-2.71-6.02-2.71s-4.39.9-6.02,2.71c-1.63,1.81-2.44,4.1-2.44,6.89s.81,5.12,2.44,6.89c1.63,1.81,3.63,2.71,6.02,2.71M302.32,52.29c-1.48,0-2.87-.19-4.18-.57-1.3-.38-2.49-.91-3.55-1.6-1.07-.69-1.98-1.5-2.74-2.44-.76-.94-1.34-1.99-1.73-3.15l4.72-1.95c.54,1.55,1.48,2.8,2.82,3.74s2.89,1.41,4.66,1.41c2.71,0,4.83-.81,6.35-2.44,1.52-1.63,2.28-3.87,2.28-6.72v-2.55h-.22c-.94,1.41-2.22,2.52-3.82,3.34-1.61.81-3.35,1.22-5.23,1.22-3.47,0-6.45-1.36-8.95-4.07-2.46-2.78-3.69-6.15-3.69-10.09s1.23-7.29,3.69-10.03c2.5-2.75,5.48-4.12,8.95-4.12,1.88,0,3.62.41,5.23,1.22,1.61.81,2.88,1.93,3.82,3.33h.22v-3.69h4.77v25.43c0,4.27-1.21,7.61-3.63,10.03s-5.71,3.69-9.76,3.69M321.79,39.71h4.99V.88h-4.99v38.83ZM336.54,23.22h15.24c-.14-1.84-.89-3.37-2.25-4.58s-3.17-1.82-5.45-1.82c-1.88,0-3.5.58-4.85,1.74-1.36,1.16-2.25,2.71-2.68,4.66M344.51,40.57c-3.91,0-7.12-1.34-9.65-4.01-2.53-2.68-3.8-6.06-3.8-10.14s1.23-7.42,3.69-10.11,5.6-4.04,9.44-4.04,7.08,1.27,9.41,3.82c2.33,2.55,3.5,6.12,3.5,10.71l-.06.54h-20.88c.07,2.6.94,4.7,2.6,6.29s3.65,2.39,5.97,2.39c3.18,0,5.68-1.59,7.48-4.77l4.45,2.17c-1.19,2.24-2.85,3.99-4.96,5.26-2.11,1.27-4.51,1.9-7.18,1.9M391.64,40.57c-5.75,0-10.56-1.93-14.42-5.8-3.83-3.87-5.75-8.7-5.75-14.48s1.92-10.59,5.75-14.42C381.05,1.96,385.86.01,391.64.01s10.61,2.11,14.26,6.35l-3.58,3.47c-2.79-3.36-6.34-5.04-10.68-5.04s-7.9,1.45-10.79,4.34c-2.86,2.86-4.28,6.58-4.28,11.17s1.43,8.32,4.28,11.17,6.49,4.34,10.79,4.34c4.52,0,8.44-1.9,11.77-5.7l3.63,3.53c-1.84,2.21-4.1,3.91-6.78,5.13-2.68,1.21-5.55,1.82-8.62,1.82M411.49,39.71h4.99V.88h-4.99v38.83ZM425.75,26.42c0,2.86.83,5.17,2.49,6.94s3.72,2.66,6.18,2.66,4.52-.89,6.18-2.66,2.5-4.09,2.5-6.94-.83-5.12-2.5-6.89c-1.7-1.81-3.76-2.71-6.18-2.71s-4.48.9-6.18,2.71c-1.66,1.77-2.49,4.07-2.49,6.89M420.76,26.42c0-4.09,1.28-7.47,3.85-10.14,2.6-2.67,5.88-4.01,9.82-4.01s7.19,1.34,9.76,4.01c2.6,2.68,3.91,6.06,3.91,10.14s-1.3,7.5-3.91,10.14c-2.57,2.68-5.82,4.01-9.76,4.01s-7.21-1.34-9.82-4.01c-2.57-2.68-3.85-6.06-3.85-10.14M475.7,39.71h-4.77v-3.69h-.22c-.76,1.3-1.92,2.39-3.5,3.25-1.57.87-3.21,1.3-4.91,1.3-3.25,0-5.76-.93-7.51-2.79-1.75-1.86-2.63-4.51-2.63-7.94V13.14h4.99v16.38c.11,4.34,2.29,6.51,6.56,6.51,1.99,0,3.65-.8,4.99-2.41s2.01-3.53,2.01-5.78v-14.7h4.99v26.57h0ZM493.44,36.02c2.46,0,4.46-.88,6.02-2.66,1.63-1.77,2.44-4.09,2.44-6.94s-.81-5.08-2.44-6.89c-1.59-1.81-3.6-2.71-6.02-2.71s-4.39.9-6.02,2.71c-1.63,1.81-2.44,4.1-2.44,6.89s.81,5.12,2.44,6.89c1.63,1.81,3.63,2.71,6.02,2.71M492.62,40.57c-3.47,0-6.45-1.37-8.95-4.12-2.46-2.78-3.69-6.13-3.69-10.03s1.23-7.25,3.69-10.03c2.49-2.75,5.48-4.12,8.95-4.12,1.95,0,3.73.42,5.34,1.25,1.61.83,2.85,1.93,3.71,3.31h.22l-.22-3.69V.88h4.99v38.83h-4.77v-3.69h-.22c-.87,1.38-2.11,2.48-3.71,3.31-1.61.83-3.39,1.25-5.34,1.25M203.69,93.3c2.49,0,4.37-.71,5.64-2.12,1.27-1.41,1.91-3.03,1.91-4.87,0-.89-.15-1.76-.46-2.61-.31-.85-.78-1.59-1.41-2.22s-1.42-1.14-2.36-1.52c-.94-.38-2.05-.57-3.32-.57h-8.4v13.9h8.4,0ZM185.77,120.88v-50.52h17.78c2.4,0,4.65.39,6.74,1.16,2.09.78,3.92,1.87,5.47,3.28s2.78,3.09,3.67,5.04,1.34,4.11,1.34,6.46-.45,4.58-1.34,6.53c-.89,1.95-2.12,3.63-3.67,5.04-1.55,1.41-3.38,2.5-5.47,3.28s-4.34,1.16-6.74,1.16h-8.26v18.56h-9.52ZM246.31,106.84c-1.08-.52-2.2-.93-3.35-1.23-1.15-.31-2.41-.46-3.78-.46-2.21,0-3.92.48-5.11,1.45-1.2.96-1.8,2.15-1.8,3.56s.58,2.54,1.73,3.39,2.48,1.27,3.99,1.27c1.22,0,2.35-.22,3.39-.67,1.03-.45,1.92-1.03,2.65-1.76.73-.73,1.29-1.58,1.69-2.54.4-.96.6-1.96.6-3h-.01ZM246.31,117.21h-.56c-1.08,1.32-2.39,2.45-3.92,3.39s-3.49,1.41-5.89,1.41c-1.79,0-3.47-.29-5.04-.88-1.58-.59-2.95-1.4-4.13-2.43s-2.09-2.28-2.75-3.74-.99-3.06-.99-4.8.35-3.4,1.06-4.83,1.69-2.67,2.96-3.7,2.76-1.82,4.48-2.36c1.72-.54,3.59-.81,5.61-.81,2.26,0,4.12.18,5.57.53,1.46.35,2.66.72,3.6,1.09v-1.06c0-1.83-.73-3.35-2.19-4.55-1.46-1.2-3.27-1.8-5.43-1.8-3.2,0-5.9,1.34-8.11,4.02l-6.7-4.59c3.67-4.61,8.68-6.92,15.03-6.92,5.36,0,9.45,1.26,12.28,3.78,2.82,2.52,4.23,6.24,4.23,11.18v20.74h-9.1v-3.67h0ZM295.63,94.21h-6.07v-7.9h6.07v-10.58h9.24v10.58h8.47v7.9h-8.47v13.81c0,.82.08,1.59.25,2.29.16.7.48,1.3.95,1.78.66.78,1.6,1.16,2.82,1.16.8,0,1.43-.08,1.91-.25.47-.16.92-.39,1.34-.67l2.61,8.12c-1.08.52-2.25.9-3.49,1.16-1.25.26-2.62.39-4.13.39-1.74,0-3.31-.28-4.69-.83-1.39-.55-2.55-1.31-3.49-2.27-2.21-2.16-3.32-5.23-3.32-9.22v-15.48h0ZM271.43,91.67h.56c.94-1.74,2.32-3.14,4.13-4.2s3.82-1.59,6.03-1.59c.8,0,1.43.02,1.91.07.47.05.92.14,1.34.28v9.17c-.52-.23-1.09-.42-1.73-.56-.64-.14-1.4-.21-2.29-.21-2.92,0-5.21.88-6.88,2.65-1.67,1.76-2.51,4.18-2.51,7.23v16.93h-9.24v-34.57h8.68v4.8h0ZM329.14,90.83h.56c1.08-1.74,2.54-3.12,4.37-4.13s3.93-1.52,6.28-1.52c2.16,0,4.07.35,5.71,1.06,1.65.71,3,1.7,4.06,3s1.86,2.85,2.4,4.66.81,3.82.81,6.03v20.96h-9.24v-19.83c0-2.49-.55-4.34-1.66-5.54-1.11-1.2-2.72-1.8-4.83-1.8-1.27,0-2.39.27-3.35.81s-1.79,1.27-2.47,2.19-1.2,2-1.55,3.25c-.35,1.25-.53,2.58-.53,3.99v16.93h-9.24v-34.57h8.68v4.52h0ZM385.3,99.15c-.05-.61-.25-1.29-.6-2.05-.35-.75-.87-1.46-1.55-2.12s-1.53-1.2-2.54-1.62c-1.01-.42-2.22-.63-3.63-.63-1.98,0-3.72.56-5.22,1.69-1.51,1.13-2.57,2.71-3.18,4.73h16.72ZM393.7,112.56c-1.6,2.82-3.75,5.1-6.46,6.84s-6.01,2.61-9.91,2.61c-2.64,0-5.07-.46-7.3-1.38-2.23-.92-4.18-2.2-5.82-3.85-1.65-1.65-2.93-3.59-3.85-5.82s-1.38-4.69-1.38-7.37c0-2.49.45-4.86,1.34-7.09.89-2.24,2.14-4.19,3.74-5.86,1.6-1.67,3.49-3,5.68-3.99s4.6-1.48,7.23-1.48c2.77,0,5.24.46,7.41,1.38,2.16.92,3.98,2.19,5.43,3.81,1.46,1.62,2.56,3.54,3.32,5.75.75,2.21,1.13,4.61,1.13,7.2v.85c-.05.28-.07.54-.07.78-.05.24-.07.5-.07.78h-26.03c.19,1.41.58,2.62,1.16,3.63.59,1.01,1.32,1.86,2.19,2.54.87.68,1.82,1.18,2.86,1.48,1.03.31,2.09.46,3.18.46,2.12,0,3.87-.48,5.26-1.45,1.39-.96,2.48-2.17,3.28-3.63l7.69,3.81h0ZM400.19,86.31h8.68v4.8h.57c.42-.85.99-1.62,1.69-2.33.71-.71,1.49-1.32,2.36-1.84s1.81-.95,2.82-1.27c1.01-.32,2.01-.48,3-.48,1.22,0,2.27.13,3.14.39s1.61.6,2.22,1.02l-2.47,8.26c-.56-.28-1.19-.5-1.87-.67-.68-.16-1.52-.25-2.5-.25-1.27,0-2.42.25-3.46.75-1.03.5-1.92,1.19-2.64,2.09-.73.9-1.3,1.95-1.69,3.16-.4,1.2-.6,2.52-.6,3.93v17.02h-9.24v-34.57h-.01Z"/>
    </g>
  </g>
</svg>