<?xml version="1.0" encoding="UTF-8"?>
<svg id="Layer_2" data-name="Layer 2" xmlns="http://www.w3.org/2000/svg" viewBox="0 0 725.98 97.12">
  <defs>
    <style>
      .cls-1 {
        fill: #fff;
      }
    </style>
  </defs>
  <g id="Layer_1-2" data-name="Layer 1">
    <path class="cls-1" d="M501.23,37.95c0-11.91-7.44-20.47-21.21-20.47h-45.4v61.77h14.88v-21.21h17.49l17.12,21.21h16.74v-1.49l-16.74-20.09c10.79-2.23,17.12-10.05,17.12-19.72ZM478.16,45.4h-28.65v-15.26h28.65c5.21,0,8.56,2.98,8.56,7.81.37,4.84-2.98,7.44-8.56,7.44Z"/>
    <path class="cls-1" d="M725.98,17.12h-13.77v23.44h-37.58v-23.44h-14.88v61.77h14.88v-24.19h37.58v24.19h13.77V17.12Z"/>
    <path class="cls-1" d="M394.81,17.12l-16.37,51.72h-.74l-16.74-51.72h-26.42v61.77h14.14V28.28h.74l16.37,50.61h22.7l16.74-50.61h.74v50.61h14.51V17.12h-25.68Z"/>
    <path class="cls-1" d="M232.94,42.42c-5.21-.37-14.88-1.49-20.47-1.86-5.21-.37-8.19-2.23-8.19-5.58s3.35-5.95,16-5.95c11.16,0,21.58,2.6,30.88,6.7v-13.77c-8.93-4.47-18.98-6.33-31.63-6.33-17.49,0-29.77,7.44-29.77,19.72,0,10.42,7.07,16.37,21.58,17.86,5.21.74,14.14,1.49,20.09,1.86,6.7.37,8.56,2.6,8.56,5.58,0,4.09-4.84,6.7-16.37,6.7s-24.19-4.09-33.12-9.3v14.14c7.07,4.84,18.98,8.56,32.75,8.56,18.98,0,31.26-7.44,31.26-20.47,0-10.05-6.33-16.37-21.58-17.86Z"/>
    <path class="cls-1" d="M264.57,17.12v61.77h57.3v-12.65h-43.16v-12.65h42.42v-12.65h-42.42v-11.16h43.16v-12.65h-57.3Z"/>
    <path class="cls-1" d="M628.86,42.42c-5.21-.37-14.88-1.49-20.47-1.86-5.21-.37-8.19-2.23-8.19-5.58s3.35-5.95,16-5.95c11.16,0,21.58,2.23,30.88,6.7v-13.77c-8.93-4.47-18.98-6.33-31.63-6.33-17.49,0-29.77,7.44-29.77,19.72,0,10.42,7.07,16.37,21.58,17.86,5.21.74,14.14,1.49,20.09,1.86,6.7.37,8.56,2.6,8.56,5.58,0,4.09-4.84,6.7-16.37,6.7s-24.19-4.09-33.12-9.3v14.14c7.07,4.84,18.98,8.56,32.75,8.56,18.98,0,31.26-7.44,31.26-20.47,0-10.05-6.7-16.37-21.58-17.86Z"/>
    <path class="cls-1" d="M560.77,17.12v31.63c0,11.91-7.44,18.61-18.23,18.61s-18.23-6.33-18.23-18.61v-31.26h-14.88v30.14c0,22.33,14.14,33.49,33.12,33.49s32.75-10.79,32.75-32.75v-30.51h-14.51v-.74Z"/>
    <path class="cls-1" d="M139.17,47.63c0,2.98-1.49,3.35-5.21,3.35-4.09,0-4.84-.74-5.21-3.72-.74-7.81-5.95-14.51-14.88-14.88-2.6-.37-3.35-1.12-3.35-4.84,0-3.35.37-4.84,2.98-4.84,14.88.37,25.68,12.65,25.68,24.93ZM161.12,47.63c0-23.07-15.63-47.63-52.1-47.63H37.21c-1.49,0-2.23.74-2.23,2.23,0,.74.37,1.49,1.12,1.86,2.6,2.23,6.33,4.47,11.54,7.07,4.84,2.6,8.93,4.09,12.65,5.58,1.49.74,2.23,1.49,2.23,2.23,0,1.12-.74,2.23-2.6,2.23H2.6c-1.86,0-2.6,1.12-2.6,2.23s.37,1.86,1.12,2.6c4.47,4.84,11.91,10.79,22.7,17.49,9.3,5.95,21.21,12.28,30.51,16.74,1.49.74,2.23,1.49,2.23,2.6s-.74,1.86-2.6,1.86h-26.42c-1.49,0-2.23.74-2.23,1.86,0,.74.37,1.49,1.12,2.23,5.95,5.58,15.63,11.16,28.28,16.74,17.12,7.07,34.23,11.54,53.58,11.54,36.84-.37,52.84-27.91,52.84-49.49ZM113.12,80.75c-17.86,0-33.12-14.51-33.12-33.12s14.88-32.37,33.12-32.37,33.12,14.51,33.12,32.37c0,18.23-14.51,33.12-33.12,33.12Z"/>
  </g>
</svg>