<?xml version="1.0" encoding="UTF-8"?>
<svg id="Layer_2" data-name="Layer 2" xmlns="http://www.w3.org/2000/svg" viewBox="0 0 1137.09 230.63">
  <defs>
    <style>
      .cls-1 {
        fill: #fff;
      }
    </style>
  </defs>
  <g id="Layer_1-2" data-name="Layer 1">
    <g>
      <path class="cls-1" d="M24.68,41.87c49.8-62.3,147.92-53.49,186.46,15.93,46.66,84.02-26.67,183.41-120.73,165.06C7.93,206.76-27.89,107.64,24.68,41.87ZM180.16,37.57C148.54,7.42,98.53,3.32,61.1,25.34c-13.15,7.73-23.67,18.19-32.59,30.46-.46,1.05,1.51,1.3,2.07,1.37,9.24,1.08,21.38-1.82,30.65-1.7,5.64.08,6.17,7.53,1.1,8.65-3.38.75-7.77.53-11.25.62l.05,1.38,35.85,107.86,1.17-1.42,21.32-64.18-15.61-42.72c-2.02-2.58-14.39.99-14.44-5.28-.02-2.62,1.62-4.91,4.35-4.91.98,0,1.94.57,2.92.59,13.78.33,26.63,1.17,40.51.58,3.3-.14,11.46-2.25,13.64.42.48.59,1.17,2.51,1.13,3.3-.29,5.35-11.31,4.12-15.05,4.38l36.18,108.08c3.84-10.14,6.55-20.89,9.72-31.33,5.62-18.49,12.55-32.62,4.74-52.47-5.2-13.23-20.52-27-12.66-42.14,3.12-6.01,8.59-8.92,15.27-9.32ZM163.96,199.42c37.5-21.54,56.36-65.14,47.86-107.62-1.83-9.15-5.08-18.52-9.95-26.48,1.03,11.5-.14,23.06-3.47,34.1l-34.44,100ZM67.85,202.89L19.81,71.68c-10.3,23.98-11.2,50.87-2.33,75.44,8.61,23.86,27.26,45.11,50.37,55.77ZM146.01,208.09l-31.83-86.11-30.11,87.85c20.48,5.15,41.87,4.97,61.95-1.74Z"/>
      <path class="cls-1" d="M432.27,65.9l4.93,15.03c1.06.78,4.64-4.89,5.48-5.79,9.19-9.72,19.64-12.23,32.94-10.9,41.7,4.17,44.97,74.68,25.15,101.27-13.39,17.97-40.8,21.42-57.76,6.41-.76-.67-5.01-6.35-5.82-5.45,2.06,21.29.83,42.77,1.15,64.16h-30.1V65.9h24.02ZM474.57,150.63c14-16.52,10.96-74.8-24.05-60.16-15.53,6.49-14.2,42.47-8.22,55.01,5.55,11.63,23.99,14.92,32.27,5.15Z"/>
      <path class="cls-1" d="M269.31,65.9l23.57,69.82,4.51,20.36c5.37-30.61,18.73-59.07,27.45-88.78l.92-1.4h29.81l-42.81,113.03-29.29.3-1.72-.59-43.11-112.73h30.68Z"/>
      <polygon class="cls-1" points="392.62 65.9 392.62 179.19 362.52 179.19 362.52 87.57 371.49 65.9 392.62 65.9"/>
      <path class="cls-1" d="M805.96,52.6c8.48,15.07,19.25,28.8,26.64,44.5,1.52-.05,0-2.26,0-2.6v-41.91h6.37v54.33l-7.82-.57-26.91-44.51v45.09h-6.37v-54.33h8.1Z"/>
      <path class="cls-1" d="M803.64,142.78l28.36,43.93-.58-43.93h6.37v53.76c-2.85-.38-6.74,1.15-8.69-1.44l-27.49-43.07.29,43.07-.95,1.36-5.42.08v-53.76h8.1Z"/>
      <path class="cls-1" d="M883.34,51.67c32.05-.03,32.34,51.33,4.47,55.79-38.39,6.14-39.64-55.76-4.47-55.79ZM894.32,62.06c-3.84-3.94-10.28-5.59-15.56-4.1-19.3,5.45-17.05,44.35,4.48,44.35,18.29,0,21.99-29.06,11.08-40.25Z"/>
      <path class="cls-1" d="M993.91,51.67c32.1-.24,32.46,51.44,4.47,55.79-38.4,5.97-39.56-55.53-4.47-55.79ZM993.39,57.39c-23.27.62-22.65,44.92.42,44.92,23.03,0,23.07-45.54-.42-44.92Z"/>
      <path class="cls-1" d="M928.39,142.78c5.74.61,12.89,3.83,14.37,9.93,2.25,9.32-1.23,16.35-10.02,19.83l14.46,23.99-7.86-.53-13.27-22.01h-10.13v21.68l-.96.78c-.53.17-1.08.07-1.62.12-1.44.12-3.48.29-4.37-.9v-52.89c6.2.48,13.3-.64,19.39,0ZM926.08,148.56c-3.2-.34-6.87.25-10.13,0v19.65h13.03c.22,0,3.57-1.51,3.97-1.81,4.18-3.08,4.76-12.41.52-15.54-1.2-.89-5.86-2.13-7.39-2.29Z"/>
      <path class="cls-1" d="M711.31,142.78c5.96.63,12.79,3.66,14.36,9.93,2.28,9.12-1.29,16.59-10.02,19.83l14.46,23.99-7.82-.57-13.31-21.97h-9.26l-.87.87v20.81l-.96.78c-.53.17-1.08.07-1.62.12-1.44.12-3.48.29-4.37-.9v-52.89c6.2.48,13.3-.64,19.39,0ZM708.99,148.56c-3.22-.32-6.86.23-10.13,0v19.65h13.03c.25,0,3.47-1.5,3.96-1.83,4.08-2.72,4.32-8.67,2.64-12.88-1.28-3.21-6.37-4.63-9.49-4.94Z"/>
      <path class="cls-1" d="M1079.2,104.34c-1.01,3.3-20.09,3.5-23.38,3.12-26.22-3.06-29.03-43.85-4.97-53.4,7.3-2.9,19.81-3.4,26.55.63l-1.09,4.85c-10.56-2.82-24.35-3.49-30.92,6.98s-4.11,29.22,8.76,33.92c5.02,1.83,13.36,2.19,18.1-.16v-16.47h-11v-5.2h17.95v25.72Z"/>
      <polygon class="cls-1" points="742.28 52.6 742.28 75.15 768.91 75.15 768.91 52.6 775.85 52.6 775.85 106.94 768.91 106.94 768.91 81.51 742.28 81.51 742.28 106.94 735.33 106.94 735.33 52.6 742.28 52.6"/>
      <path class="cls-1" d="M656.52,142.85l20.34,53.67-6.66-.57-6.14-16.12-21.36.21c-1.46.88-4.4,13.47-6.32,15.65-1.39,1.59-4.97.56-6.98.83l20.55-53.18,6.58-.5ZM661.81,173.99l-8.39-23.7-8.39,23.7h16.79Z"/>
      <path class="cls-1" d="M889.9,142.78v5.78h-23.16v16.76h21.13c1.59,1.38.65,3.88.87,5.78h-22v19.07h22.29l.78.96c.16.73.13,1.48.13,2.22,0,1.18.19,2.45-.9,3.18h-28.37l-.87-.87v-52.89h30.1Z"/>
      <polygon class="cls-1" points="658.34 52.6 658.34 58.38 635.76 58.38 635.76 75.73 657.18 75.73 657.18 81.51 635.76 81.51 635.76 101.16 659.49 101.16 659.49 106.94 628.81 106.94 628.81 52.6 658.34 52.6"/>
      <path class="cls-1" d="M594.08,175.72v20.81h-6.37v-53.76h18.24c1.07,0,6.13,1.38,7.37,1.89,12.97,5.3,10.75,25.52-2.57,29.5-1.41.42-6.52,1.56-7.7,1.56h-8.97ZM594.08,148.56v20.52c.51.83,1.15.8,2,.9,4.72.55,14.97-.61,17.43-5.2,3.23-6,1.18-13.23-5.52-15.36-.45-.14-3.58-.86-3.77-.86h-10.13Z"/>
      <path class="cls-1" d="M716.81,53.77l-2.1,5.74c-15.33-5.26-31.02.6-32.09,18.22-1.28,21.04,14.62,27.93,33.02,22.28l.92,5.23c-17.75,6.78-39.22.57-41.37-20.61-2.58-25.52,18.54-38.09,41.61-30.85Z"/>
      <polygon class="cls-1" points="1112.19 84.68 1094.83 52.61 1103.21 53.19 1115.68 78.61 1128.98 52.6 1137.09 52.6 1119.14 83.53 1119.14 106.94 1112.19 106.94 1112.19 84.68"/>
      <polygon class="cls-1" points="612.6 52.6 612.6 58.38 595.81 58.38 595.81 106.94 588.87 106.94 588.87 58.38 572.08 58.38 572.08 52.6 612.6 52.6"/>
      <path class="cls-1" d="M779.91,142.78v5.78h-15.92l-.87.87v47.11c-2.23-.3-5.27.83-6.95-.87v-47.11h-16.21v-5.78h39.94Z"/>
      <polygon class="cls-1" points="933.89 52.6 933.89 101.16 957.05 101.16 957.05 106.94 926.95 106.94 926.95 52.6 933.89 52.6"/>
    </g>
  </g>
</svg>